<svg id="Layer_1" data-name="Layer 1" xmlns="http://www.w3.org/2000/svg" viewBox="0 0 42.84 35.78"><defs><style>.cls-1{fill:#fff;}</style></defs><path class="cls-1" d="M1731.45-237h-5.26v-2.14h5.26a3,3,0,0,1,1.45-2.33,4.16,4.16,0,0,1,3.28-.11v6.79H1734v2.53a3.46,3.46,0,0,1,1.53,2.59v4.19s8-2.29,9.68,4.88a29.71,29.71,0,0,0-7.36-.19c-2.5.35-4.2,1.84-5,1.84h-30.51s1.55-6.84,7.23-9.38a6.05,6.05,0,0,1,2.45-.48h9.7v4.62l3.15,3h6.62Z" transform="translate(-1702.34 247.33)"/><path class="cls-1" d="M1738.15-223.48a6,6,0,0,0-6,6,6,6,0,0,0,6,6,6,6,0,0,0,6-6A6,6,0,0,0,1738.15-223.48Zm0,8.9a2.94,2.94,0,0,1-2.93-2.94,2.94,2.94,0,0,1,2.93-2.94,2.94,2.94,0,0,1,2.94,2.94A2.94,2.94,0,0,1,1738.15-214.58Z" transform="translate(-1702.34 247.33)"/><path class="cls-1" d="M1718.29-217.52a6,6,0,0,1-6,6,6,6,0,0,1-6-6h3a2.94,2.94,0,0,0,2.93,2.94,2.94,2.94,0,0,0,2.94-2.94Z" transform="translate(-1702.34 247.33)"/><path class="cls-1" d="M1720.16-247.33h-13.91a1.52,1.52,0,0,0-1.53,1.52v13.91a1.52,1.52,0,0,0,1.53,1.53h13.91a1.52,1.52,0,0,0,1.52-1.53v-13.91A1.52,1.52,0,0,0,1720.16-247.33Zm-9.62,14.42a.37.37,0,0,1-.53,0l-3.74-3.8a.37.37,0,0,1,0-.53l4.06-4,4.27,4.33Zm8.33-8.21-4.06,4-4.27-4.33,4.06-4a.37.37,0,0,1,.53,0l3.74,3.79A.37.37,0,0,1,1718.87-241.12Z" transform="translate(-1702.34 247.33)"/><circle class="cls-1" cx="12.49" cy="5.92" r="1.07"/><circle class="cls-1" cx="9.5" cy="10.42" r="1.07"/><circle class="cls-1" cx="6.39" cy="10.37" r="1.07"/></svg>