<svg id="Layer_1" data-name="Layer 1" xmlns="http://www.w3.org/2000/svg" viewBox="0 0 38.21 47.96"><defs><style>.cls-1{fill:#fff;}</style></defs><path class="cls-1" d="M1713.9-256.07l-6.33-6.42a.63.63,0,0,0-.9,0l-6.87,6.77,7.23,7.33,6.87-6.78A.62.62,0,0,0,1713.9-256.07Zm-6.82,2.22a1.82,1.82,0,0,1-1.81-1.81,1.82,1.82,0,0,1,1.81-1.82,1.82,1.82,0,0,1,1.81,1.82A1.82,1.82,0,0,1,1707.08-253.85Z" transform="translate(-1681.08 262.68)"/><path class="cls-1" d="M1698.7-254.63l-6.87,6.77a.62.62,0,0,0,0,.89l6.33,6.44a.63.63,0,0,0,.9,0l6.87-6.77Zm-2.7,9a1.82,1.82,0,0,1-1.82-1.81,1.82,1.82,0,0,1,1.82-1.81,1.82,1.82,0,0,1,1.81,1.81A1.82,1.82,0,0,1,1696-245.58Zm5.26.09a1.82,1.82,0,0,1-1.81-1.81,1.82,1.82,0,0,1,1.81-1.82,1.81,1.81,0,0,1,1.81,1.82A1.8,1.8,0,0,1,1701.26-245.49Z" transform="translate(-1681.08 262.68)"/><path class="cls-1" d="M1719.29-232.63v5.17h-38.21v-5.17l2.3-9.07h11.54l2.15,2.18a2.08,2.08,0,0,0,1.5.67h0a2.14,2.14,0,0,0,1.51-.62l2.26-2.23H1717Z" transform="translate(-1681.08 262.68)"/><polygon class="cls-1" points="22.36 35.22 22.36 47.96 2.07 47.96 2.07 35.22 5.16 35.22 5.16 44.98 19.27 44.98 19.27 35.22 22.36 35.22"/><rect class="cls-1" x="32.23" y="35.22" width="3.77" height="12.74"/><path class="cls-1" d="M1692-244.67h-8.62v-3.75h7a2.12,2.12,0,0,0-.25,1,2.09,2.09,0,0,0,.63,1.45Z" transform="translate(-1681.08 262.68)"/><polygon class="cls-1" points="35.99 14.26 35.99 18.01 24.32 18.01 25.19 17.15 26.98 15.39 28.13 14.26 35.99 14.26"/></svg>